<svg width="274.227" height="91.001" viewBox="0 0 274.227 91.001" xmlns="http://www.w3.org/2000/svg"><g id="svgGroup" stroke-linecap="round" fill-rule="evenodd" font-size="9pt" stroke="#000" stroke-width="0.25mm" fill="#000" style="stroke:#000;stroke-width:0.25mm;fill:#000"><path d="M 36.627 91 Q 26.827 91 18.677 88.1 Q 10.527 85.2 5.527 79.55 Q 0.527 73.9 0.027 65.6 Q -0.173 62.2 1.127 58.1 Q 2.427 54 4.777 49.95 Q 7.127 45.9 10.377 42.65 Q 13.627 39.4 17.327 37.7 Q 17.627 37.5 18.277 37.4 Q 18.927 37.3 19.227 37.3 Q 19.827 37.3 19.827 37.6 Q 19.827 38.1 18.327 39.2 Q 14.127 42.5 11.427 46.8 Q 8.627 51.1 7.227 56 Q 5.827 60.9 5.827 65.9 Q 5.827 71.8 8.377 76.05 Q 10.927 80.3 15.227 83.05 Q 19.527 85.8 25.027 87.1 Q 30.527 88.4 36.527 88.4 Q 43.227 88.4 49.777 86.9 Q 56.327 85.4 61.727 82.6 Q 70.027 78.2 74.877 71.7 Q 79.727 65.2 79.727 58.8 Q 79.727 55.4 78.277 52.3 Q 76.827 49.2 73.627 46.7 Q 71.227 44.8 67.777 43.1 Q 64.327 41.4 60.477 39.8 Q 56.627 38.2 52.927 36.55 Q 49.227 34.9 46.427 33 Q 42.427 30.3 40.577 27.2 Q 38.727 24.1 38.727 21 Q 38.727 17.3 40.877 13.8 Q 43.027 10.3 46.777 7.45 Q 50.527 4.6 55.227 3 Q 59.327 1.6 64.177 0.8 Q 69.027 0 73.727 0 Q 77.627 0 81.177 0.55 Q 84.727 1.1 87.427 2.5 Q 90.827 4.1 92.627 6.75 Q 94.427 9.4 94.427 12.3 Q 94.427 16.3 90.827 19.3 Q 89.527 20.3 87.927 21.15 Q 86.327 22 84.127 22.6 Q 83.727 22.7 83.227 22.7 Q 82.027 22.7 82.027 22 Q 82.027 21.6 82.677 21.15 Q 83.327 20.7 84.627 20.6 Q 87.627 20.2 89.177 18.3 Q 90.727 16.4 90.727 13.9 Q 90.727 11.3 88.977 8.75 Q 87.227 6.2 83.627 4.45 Q 80.027 2.7 74.427 2.7 Q 71.227 2.7 67.377 3.4 Q 63.527 4.1 59.027 5.7 Q 53.527 7.6 49.877 11.3 Q 46.227 15 46.227 19.2 Q 46.227 21.8 47.977 24.45 Q 49.727 27.1 53.627 29.5 Q 56.927 31.5 61.127 33.45 Q 65.327 35.4 69.627 37.35 Q 73.927 39.3 77.427 41.5 Q 82.927 44.9 85.327 48.8 Q 87.727 52.7 87.727 56.8 Q 87.727 61.6 84.877 66.45 Q 82.027 71.3 77.427 75.55 Q 72.827 79.8 67.327 83.1 Q 60.927 86.9 52.877 88.95 Q 44.827 91 36.627 91 Z M 215.427 82.1 Q 213.127 82.1 211.377 80.8 Q 209.627 79.5 209.627 75.5 Q 209.627 73.8 209.877 72.3 Q 210.127 70.8 210.527 69.1 Q 209.627 70.6 208.027 72.8 Q 206.427 75 204.477 77.1 Q 202.527 79.2 200.477 80.6 Q 198.427 82 196.627 82 Q 194.027 82 192.427 79.65 Q 190.827 77.3 190.827 73.5 Q 190.827 69.4 192.727 64.7 Q 194.627 60 197.927 55.7 Q 201.227 51.4 205.527 48.7 Q 209.827 46 214.527 46 Q 216.827 46 218.927 46.75 Q 221.027 47.5 222.627 49.2 Q 223.327 49.9 223.327 50.8 Q 223.327 51.4 222.827 51.8 Q 222.327 52.2 221.527 52 Q 220.427 48.5 216.827 48.5 Q 215.127 48.5 212.927 49.6 Q 210.227 51 207.177 54.05 Q 204.127 57.1 201.477 60.95 Q 198.827 64.8 197.127 68.7 Q 195.427 72.6 195.427 75.8 Q 195.427 79.1 197.927 79.1 Q 200.127 79.1 202.477 77 Q 204.827 74.9 206.977 71.75 Q 209.127 68.6 210.927 65.5 Q 212.727 62.4 213.727 60.5 Q 215.227 57.8 216.527 56 Q 217.827 54.2 220.227 54.2 Q 221.327 54.2 222.427 54.5 Q 223.527 54.8 224.727 54.6 Q 221.727 57.6 219.477 61.7 Q 217.227 65.8 216.027 69.75 Q 214.827 73.7 214.827 76.4 Q 214.827 79.4 216.827 79.4 Q 218.427 79.4 220.277 77.6 Q 222.127 75.8 223.877 73.05 Q 225.627 70.3 227.127 67.45 Q 228.627 64.6 229.527 62.5 Q 230.027 62.5 230.377 62.6 Q 230.727 62.7 230.727 63.4 Q 230.627 63.8 230.377 64.25 Q 230.127 64.7 229.627 65.8 Q 228.827 67.4 227.427 70.1 Q 226.027 72.8 224.127 75.55 Q 222.227 78.3 220.027 80.2 Q 217.827 82.1 215.427 82.1 Z M 102.727 82.6 Q 106.327 75.3 109.627 68.15 Q 112.927 61 116.427 54.5 Q 118.427 50.9 119.827 49.45 Q 121.227 48 123.527 48 Q 124.327 48 125.227 48.25 Q 126.127 48.5 127.027 48.5 Q 127.627 48.5 127.927 48.4 Q 126.527 49.2 124.277 52.35 Q 122.027 55.5 119.727 59.6 Q 117.427 63.7 115.627 67.3 Q 117.527 65 119.627 62.7 Q 121.727 60.4 124.227 58.3 Q 126.627 56.2 129.977 53.95 Q 133.327 51.7 136.527 50.2 Q 139.727 48.7 141.627 48.7 Q 142.327 48.7 142.627 48.8 L 141.527 50.75 Q 140.427 52.7 138.777 55.85 Q 137.127 59 135.427 62.55 Q 133.727 66.1 132.377 69.35 Q 131.027 72.6 130.627 74.8 Q 130.327 76.1 130.327 77.2 Q 130.327 78.8 130.927 79.3 Q 131.527 79.8 132.227 79.8 Q 134.127 79.8 136.127 78.1 Q 138.127 76.4 139.977 73.75 Q 141.827 71.1 143.427 68.1 Q 145.027 65.1 146.127 62.5 Q 147.327 62.5 147.327 63.4 Q 146.227 66.1 144.577 69.35 Q 142.927 72.6 140.877 75.5 Q 138.827 78.4 136.327 80.3 Q 133.827 82.2 130.927 82.2 Q 128.927 82.2 126.777 80.8 Q 124.627 79.4 124.627 75.6 Q 124.627 74.5 124.827 73.25 Q 125.027 72 125.527 70.5 Q 126.327 68.5 127.427 66.2 Q 128.527 63.9 131.027 59.9 Q 131.727 58.8 131.877 58.2 Q 132.027 57.6 132.027 57.2 Q 132.027 56 130.927 56 Q 130.027 56 128.277 57 Q 126.527 58 123.927 60.5 Q 121.427 62.9 117.977 67.3 Q 114.527 71.7 110.027 80.3 Q 109.327 81.6 108.477 81.7 Q 107.627 81.8 106.127 81.9 Q 105.127 82 104.227 82.05 Q 103.327 82.1 102.727 82.6 Z M 177.127 82.1 Q 173.427 82.1 171.677 79.85 Q 169.927 77.6 169.927 74.5 Q 169.927 71.3 170.827 67.9 Q 171.727 64.5 172.427 62.2 Q 174.027 56.6 176.477 50.25 Q 178.927 43.9 181.877 37.75 Q 184.827 31.6 187.727 26.7 Q 190.027 22.8 192.677 20.85 Q 195.327 18.9 197.327 18.9 Q 198.927 18.9 199.877 20.05 Q 200.827 21.2 200.827 23.5 Q 200.827 25.1 200.277 27.3 Q 199.727 29.5 198.427 32.3 Q 194.927 40.1 190.077 47.9 Q 185.227 55.7 177.827 62.5 Q 176.627 65.3 175.827 68.5 Q 175.027 71.7 175.027 73.7 Q 175.027 79.9 179.227 79.9 Q 182.427 79.9 186.327 75.25 Q 190.227 70.6 193.727 62.5 Q 194.127 62.5 194.527 62.65 Q 194.927 62.8 194.927 63.4 Q 193.827 66.1 192.177 69.35 Q 190.527 72.6 188.377 75.5 Q 186.227 78.4 183.427 80.25 Q 180.627 82.1 177.127 82.1 Z M 248.327 63.4 Q 249.127 61.4 250.027 59.2 Q 250.927 57 252.727 52.4 Q 256.327 52.5 258.577 53.3 Q 260.827 54.1 260.827 55.9 Q 260.827 57.1 259.627 59.1 Q 258.427 61.1 256.927 63.7 Q 255.427 66.3 254.227 69.25 Q 253.027 72.2 253.027 75.3 Q 253.027 78.8 254.927 80.35 Q 256.827 81.9 258.727 81.9 Q 261.227 81.9 263.527 80.05 Q 265.827 78.2 267.827 75.35 Q 269.827 72.5 271.477 69.3 Q 273.127 66.1 274.227 63.4 Q 274.227 62.5 273.027 62.5 Q 269.627 70.3 266.227 74.75 Q 262.827 79.2 260.927 79.2 Q 258.927 79.2 258.927 76.6 Q 258.927 74.6 259.877 71.75 Q 260.827 68.9 262.227 65.95 Q 263.627 63 264.827 60.65 Q 266.027 58.3 266.427 57.4 Q 267.227 55.8 267.977 53.8 Q 268.727 51.8 268.727 50.5 Q 268.727 50.2 268.527 49.6 Q 263.927 50.2 259.227 50.2 Q 257.927 50.2 256.827 50.15 Q 255.727 50.1 254.727 50 Q 257.127 48.2 258.777 46.2 Q 260.427 44.2 260.427 41.4 Q 260.427 39.1 259.327 37.85 Q 258.227 36.6 256.927 36.6 Q 256.027 36.6 255.227 37.35 Q 254.427 38.1 254.127 39.7 Q 253.427 43.8 252.027 48.4 Q 250.627 53 249.327 56.75 Q 248.027 60.5 247.227 62.2 Q 246.727 63.4 248.327 63.4 Z M 154.727 82.2 Q 149.227 82.2 146.577 79.3 Q 143.927 76.4 143.927 71.5 Q 143.927 69.2 144.827 66.2 Q 145.727 63.2 147.227 60.1 Q 148.727 57 150.527 54.6 Q 153.427 50.7 156.927 48.55 Q 160.427 46.4 164.027 46.4 Q 167.827 46.4 169.477 48.05 Q 171.127 49.7 171.127 51.9 Q 171.127 54 170.127 55.65 Q 169.127 57.3 167.877 58.3 Q 166.627 59.3 165.727 59.3 Q 164.927 59.3 164.327 58.7 Q 165.127 57.7 166.027 56.3 Q 166.927 54.9 167.327 53.6 Q 167.727 52.4 167.727 51.2 Q 167.727 48.6 165.327 48.6 Q 162.427 48.6 159.677 51 Q 156.927 53.4 154.677 57.15 Q 152.427 60.9 151.077 65.05 Q 149.727 69.2 149.727 72.7 Q 149.727 75.9 151.077 78 Q 152.427 80.1 155.527 80.1 Q 159.627 80.1 162.727 77.45 Q 165.827 74.8 168.227 70.75 Q 170.627 66.7 172.427 62.5 Q 172.827 62.5 173.227 62.65 Q 173.627 62.8 173.627 63.4 Q 171.627 68.4 168.927 72.7 Q 166.227 77 162.777 79.6 Q 159.327 82.2 154.727 82.2 Z M 92.027 68.8 L 98.727 51.7 Q 99.027 50.9 99.027 50.3 Q 99.027 49.3 98.527 48.55 L 97.827 47.5 L 103.327 47.3 Q 104.827 47.2 105.477 47.65 Q 106.127 48.1 106.127 48.7 Q 106.127 49.3 105.427 50.9 Q 104.427 53.3 102.727 56.9 Q 101.027 60.5 99.377 64.3 Q 97.727 68.1 96.577 71.4 Q 95.427 74.7 95.427 76.5 Q 95.427 77.8 96.077 78.7 Q 96.727 79.6 98.327 79.6 Q 100.427 79.6 102.477 77.95 Q 104.527 76.3 106.327 73.7 Q 108.127 71.1 109.677 68.1 Q 111.227 65.1 112.327 62.5 Q 113.527 62.5 113.527 63.4 Q 112.527 65.9 110.927 69.1 Q 109.327 72.3 107.277 75.15 Q 105.227 78 102.777 79.9 Q 100.327 81.8 97.527 81.8 Q 93.827 81.8 92.327 79.65 Q 90.827 77.5 90.827 74.7 Q 90.827 73.2 91.177 71.65 Q 91.527 70.1 92.027 68.8 Z M 226.827 68.8 L 233.527 51.7 Q 233.827 50.9 233.827 50.3 Q 233.827 49.3 233.327 48.55 L 232.627 47.5 L 238.127 47.3 Q 239.627 47.2 240.277 47.65 Q 240.927 48.1 240.927 48.7 Q 240.927 49.3 240.227 50.9 Q 239.227 53.3 237.527 56.9 Q 235.827 60.5 234.177 64.3 Q 232.527 68.1 231.377 71.4 Q 230.227 74.7 230.227 76.5 Q 230.227 77.8 230.877 78.7 Q 231.527 79.6 233.127 79.6 Q 235.227 79.6 237.277 77.95 Q 239.327 76.3 241.127 73.7 Q 242.927 71.1 244.477 68.1 Q 246.027 65.1 247.127 62.5 Q 248.327 62.5 248.327 63.4 Q 247.327 65.9 245.727 69.1 Q 244.127 72.3 242.077 75.15 Q 240.027 78 237.577 79.9 Q 235.127 81.8 232.327 81.8 Q 228.627 81.8 227.127 79.65 Q 225.627 77.5 225.627 74.7 Q 225.627 73.2 225.977 71.65 Q 226.327 70.1 226.827 68.8 Z M 178.627 59.3 Q 182.227 55.6 185.627 50.75 Q 189.027 45.9 191.977 40.65 Q 194.927 35.4 196.927 30.7 Q 197.627 29.2 198.077 27.4 Q 198.527 25.6 198.527 24.4 Q 198.527 23 197.827 23 Q 197.427 23 196.627 23.75 Q 195.827 24.5 194.527 26.3 Q 192.627 28.8 190.377 33.1 Q 188.127 37.4 185.827 42.3 Q 183.527 47.2 181.627 51.75 Q 179.727 56.3 178.627 59.3 Z M 106.427 41.1 Q 105.127 41.1 104.177 40.1 Q 103.227 39.1 103.227 37.7 Q 103.227 36 104.627 34.65 Q 106.027 33.3 107.727 33.3 Q 109.127 33.3 110.127 34.2 Q 111.127 35.1 111.127 36.5 Q 111.127 38.3 109.727 39.7 Q 108.327 41.1 106.427 41.1 Z M 241.227 41.1 Q 239.927 41.1 238.977 40.1 Q 238.027 39.1 238.027 37.7 Q 238.027 36 239.427 34.65 Q 240.827 33.3 242.527 33.3 Q 243.927 33.3 244.927 34.2 Q 245.927 35.1 245.927 36.5 Q 245.927 38.3 244.527 39.7 Q 243.127 41.1 241.227 41.1 Z" vector-effect="non-scaling-stroke"/></g></svg>